<svg width="172" height="108" viewBox="0 0 172 108" fill="none" xmlns="http://www.w3.org/2000/svg">
<path d="M2.688 48V13.488H30.528C31.744 13.488 32.864 13.792 33.888 14.4C34.912 15.008 35.728 15.824 36.336 16.848C36.944 17.84 37.248 18.944 37.248 20.16V29.472C37.248 30.688 36.944 31.808 36.336 32.832C35.728 33.856 34.912 34.672 33.888 35.28C32.864 35.856 31.744 36.144 30.528 36.144L9.024 36.192V48H2.688ZM9.6 29.76H30.24C30.4 29.76 30.544 29.712 30.672 29.616C30.8 29.52 30.864 29.392 30.864 29.232V20.4C30.864 20.24 30.8 20.112 30.672 20.016C30.544 19.888 30.4 19.824 30.24 19.824H9.6C9.44 19.824 9.296 19.888 9.168 20.016C9.072 20.112 9.024 20.24 9.024 20.4V29.232C9.024 29.392 9.072 29.52 9.168 29.616C9.296 29.712 9.44 29.76 9.6 29.76ZM40.8934 48V20.112C40.8934 18.896 41.1974 17.792 41.8054 16.8C42.4134 15.776 43.2134 14.96 44.2054 14.352C45.2294 13.744 46.3494 13.44 47.5654 13.44H68.7334C69.9494 13.44 71.0694 13.744 72.0934 14.352C73.1174 14.96 73.9334 15.776 74.5414 16.8C75.1494 17.792 75.4534 18.896 75.4534 20.112V48H69.0694V36.384H47.2294V48H40.8934ZM47.2294 30.048H69.0694V20.4C69.0694 20.24 69.0054 20.112 68.8774 20.016C68.7494 19.888 68.6054 19.824 68.4454 19.824H47.8054C47.6454 19.824 47.5014 19.888 47.3734 20.016C47.2774 20.112 47.2294 20.24 47.2294 20.4V30.048ZM87.4984 48C86.2824 48 85.1624 47.696 84.1384 47.088C83.1464 46.48 82.3464 45.68 81.7384 44.688C81.1304 43.664 80.8264 42.544 80.8264 41.328V13.44H87.1624V41.04C87.1624 41.2 87.2104 41.344 87.3064 41.472C87.4344 41.568 87.5784 41.616 87.7384 41.616H108.378C108.538 41.616 108.682 41.568 108.81 41.472C108.938 41.344 109.002 41.2 109.002 41.04V13.44H115.386V41.328C115.386 42.544 115.082 43.664 114.474 44.688C113.866 45.68 113.05 46.48 112.026 47.088C111.034 47.696 109.93 48 108.714 48H87.4984ZM120.672 48V13.44H127.632L148.848 38.688V13.44H155.232V48H148.272L127.008 22.704V48H120.672Z" fill="url(#paint0_linear_102_4)"/>
<path d="M2.688 96V61.44H9.648L22.176 76.368L34.656 61.44H41.664V96H35.28V70.656L22.176 86.256L9.024 70.704V96H2.688ZM46.5473 96V61.44H52.8353V96H46.5473ZM57.5329 96V61.44H63.8689V75.504H86.5249V61.44H92.8609V96H86.5249V81.936H63.8689V96H57.5329ZM98.409 96V68.112C98.409 66.896 98.713 65.792 99.321 64.8C99.929 63.776 100.729 62.96 101.721 62.352C102.745 61.744 103.865 61.44 105.081 61.44H126.249C127.465 61.44 128.585 61.744 129.609 62.352C130.633 62.96 131.449 63.776 132.057 64.8C132.665 65.792 132.969 66.896 132.969 68.112V96H126.585V84.384H104.745V96H98.409ZM104.745 78.048H126.585V68.4C126.585 68.24 126.521 68.112 126.393 68.016C126.265 67.888 126.121 67.824 125.961 67.824H105.321C105.161 67.824 105.017 67.888 104.889 68.016C104.793 68.112 104.745 68.24 104.745 68.4V78.048ZM137.766 96V61.44H144.054V96H137.766Z" fill="white"/>
<defs>
<linearGradient id="paint0_linear_102_4" x1="0" y1="60" x2="172" y2="60" gradientUnits="userSpaceOnUse">
<stop stop-color="#FF56F6"/>
<stop offset="0.333333" stop-color="#FF56F6"/>
<stop offset="0.9999" stop-color="#3BACE2"/>
<stop offset="1" stop-opacity="0"/>
</linearGradient>
</defs>
</svg>
